{"title":"Bobs.Burgers.S04.Season.04.Complete.1080p.WEB-DL.DD5.1.H264-AuP","uid":11704531,"size":3606368296,"categoryP":"video","categoryS":"hd___tv_shows","magnet":"?xt=urn:btih:7abb28f1ccf018f0cb9cbd62ec91efe038ea93bb&amp;dn=Bobs.Burgers.S04.Season.04.Complete.1080p.WEB-DL.DD5.1.H264-AuP&amp;tr=udp%3A%2F%2Ftracker.openbittorrent.com%3A80&amp;tr=udp%3A%2F%2Fopen.demonii.com%3A1337&amp;tr=udp%3A%2F%2Ftracker.coppersurfer.tk%3A6969&amp;tr=udp%3A%2F%2Fexodus.desync.com%3A6969","seeders":11,"leechers":3,"uploader":"Anon_up","files":22,"time":1424063883,"description":"[center][img]http://i.imgur.com/gv8mpWw.png[/img]\n\n[img]http://i.imgur.com/lrInXKU.png[/img]\n\nSource : Bobs.Burgers.S04.Season.4.COMPLETE.1080p.WEB-DL.DD5.1.H264  ~16GB\nThanks to CancerKilla @ KAT for the source\n\nCheck Screenshots,Download 1 episode to check Quality of encode\nI'm sure you will be amazed just as I am\n\nIf you have a seebox, add this n help others\nSeed for long\n\nMy Second Full Season Release\n\nReason for doing it , was no one touched it\nto help users with low bandwidth enjoy hi-quality stuff\n\nA fantastic torrent available for prev seasons\nBobs Burgers Season S01-S03 COMPLETE 720p x264 90MB\n\nA Lot of Effort went into making this encode \nHours put together to condense it from 16-&gt; 4 GB retaining quality\nI hope you appreciate the quality  :)\nIf you like it, seed\n\nIf you dont read description, you are at loss\nuse torrent to download instead of magnet when there are no peers\nEnable DHT,PEX\n\nComments,positive feedback welcome\n\nIf you have bigger screens, go for original 16 GB \n\nOriginal Audio/Subs Muxed\nRetained 1080p \n &lt;a href=&quot;\nhttp://www.imdb.com/title/tt1561755/&quot; rel=&quot;nofollow&quot; target=&quot;_NEW&quot;&gt;\nhttp://www.imdb.com/title/tt1561755/&lt;/a&gt; &lt;a href=&quot;\nhttp://www.tvrage.com/Bobs_Burgers&quot; rel=&quot;nofollow&quot; target=&quot;_NEW&quot;&gt;\nhttp://www.tvrage.com/Bobs_Burgers&lt;/a&gt;\n\nLength............: ~22 mins\nVideo.............: CRF 27 High Profile Level 4.1 X264 (1920x1080)\nFPS...............: 23.976\nAudio.............: English DD5.1 Ch 384 kbps\nSubs..............: English\n\n[img]http://i.imgur.com/MweB8LP.jpg[/img]\n\nS04E01 A River Runs Through Bob\nS04E02 Fort Night\nS04E03 Seaplane\nS04E04 My Big Fat Greek Bob\nS04E05 Turkey in a Can\nS04E06 Purple Rain-Union\nS04E07 Bob and Deliver\nS04E08 Christmas in the Car\nS04E09 Slumber Party\nS04E10 Presto Tina-O\nS04E11 Easy Com-Mercial Easy Go-Mercial\nS04E12 The Frond Files\nS04E13 Mazel Tina\nS04E14 Uncle Teddy\nS04E15 The Kids Rob a Train\nS04E16 I Get Psy-chic Out of You\nS04E17 Equestranauts\nS04E18 Ambergris\nS04E19 The Kids Run Away\nS04E20 Gene It On\nS04E21 Wharf Horse\nS04E22 World Wharf II The Wharfening \n\nVideo: MPEG4 Video (H264) 1912x1072 23.976fps [V: English [eng] (h264 high L4.1, yuv420p, 1912x1072) [default]]\nAudio: Dolby AC3 48000Hz 6ch 384kbps [A: English [eng] (ac3, 48000 Hz, 5.1, 384 kb/s) [default]]\nSubtitle: UTF-8 [S: English [eng] (srt) [default]]\nSubtitle: UTF-8 [S: No subtitles]\n\nGeneral\nUnique ID                      : 183478394164419199091597910519620336207 (0x8A08A741BEA221A6400BA6B5535C7A4F)\nComplete name                  : Bobs.Burgers.S04.1080p.WEB-DL.DD5.1.H264-AuPBobs.Burgers.S04E01.A.River.Runs.Through.Bob.1080p.WEB-DL.DD5.1.H264-AuP.mkv\nFormat                         : Matroska\nFormat version                 : Version 4 / Version 2\nFile size                      : 198 MiB\nDuration                       : 21mn 35s\nOverall bit rate               : 1 283 Kbps\nWriting application            : Lavf56.4.101\nWriting library                : Lavf56.4.101\n\nVideo\nID                             : 1\nFormat                         : AVC\nFormat/Info                    : Advanced Video Codec\nFormat profile                 : &lt;a class=&quot;__cf_email__&quot; href=&quot;/cdn-cgi/l/email-protection&quot; data-cfemail=&quot;1951707e7159552d3728&quot;&gt;[email&amp;#160;protected]&lt;/a&gt;&lt;script cf-hash='f9e31' type=&quot;text/javascript&quot;&gt;\n/* &lt;![CDATA[ */!function(){try{var t=&quot;currentScript&quot;in document?document.currentScript:function(){for(var t=document.getElementsByTagName(&quot;script&quot;),e=t.length;e--;)if(t[e].getAttribute(&quot;cf-hash&quot;))return t[e]}();if(t&amp;&amp;t.previousSibling){var e,r,n,i,c=t.previousSibling,a=c.getAttribute(&quot;data-cfemail&quot;);if(a){for(e=&quot;&quot;,r=parseInt(a.substr(0,2),16),n=2;a.length-n;n+=2)i=parseInt(a.substr(n,2),16)^r,e+=String.fromCharCode(i);e=document.createTextNode(e),c.parentNode.replaceChild(e,c)}}}catch(u){}}();/* ]]&gt; */&lt;/script&gt;\nFormat settings, CABAC         : Yes\nFormat settings, ReFrames      : 4 frames\nCodec ID                       : V_MPEG4/ISO/AVC\nDuration                       : 21mn 35s\nBit rate                       : 873 Kbps\nWidth                          : 1 912 pixels\nHeight                         : 1 072 pixels\nDisplay aspect ratio           : 16:9\nFrame rate mode                : Constant\nFrame rate                     : 23.976 fps\nColor space                    : YUV\nChroma subsampling             : 4:2:0\nBit depth                      : 8 bits\nScan type                      : Progressive\nBits/(Pixel*Frame)             : 0.018\nStream size                    : 135 MiB (68%)\nWriting library                : x264 core 142\nEncoding settings              : cabac=1 / ref=3 / deblock=1:0:0 / analyse=0x3:0x113 / me=hex / subme=7 / psy=1 / psy_rd=1.00:0.00 / mixed_ref=1 / me_range=16 / chroma_me=1 / trellis=1 / 8x8dct=1 / cqm=0 / deadzone=21,11 / fast_pskip=1 / chroma_qp_offset=-2 / threads=9 / lookahead_threads=1 / sliced_threads=0 / nr=0 / decimate=1 / interlaced=0 / bluray_compat=0 / constrained_intra=0 / bframes=3 / b_pyramid=2 / b_adapt=1 / b_bias=0 / direct=1 / weightb=1 / open_gop=0 / weightp=2 / keyint=250 / keyint_min=23 / scenecut=40 / intra_refresh=0 / rc_lookahead=40 / rc=crf / mbtree=1 / crf=27.0 / qcomp=0.60 / qpmin=0 / qpmax=69 / qpstep=4 / ip_ratio=1.40 / aq=1:1.00\nLanguage                       : English\nDefault                        : Yes\nForced                         : No\n\nAudio\nID                             : 2\nFormat                         : AC-3\nFormat/Info                    : Audio Coding 3\nMode extension                 : CM (complete main)\nFormat settings, Endianness    : Big\nCodec ID                       : A_AC3\nDuration                       : 21mn 35s\nBit rate mode                  : Constant\nBit rate                       : 384 Kbps\nChannel(s)                     : 6 channels\nChannel positions              : Front: L C R, Side: L R, LFE\nSampling rate                  : 48.0 KHz\nBit depth                      : 16 bits\nCompression mode               : Lossy\nDelay relative to video        : 16ms\nStream size                    : 59.3 MiB (30%)\nLanguage                       : English\nDefault                        : Yes\nForced                         : No\n\nText\nID                             : 3\nFormat                         : UTF-8\nCodec ID                       : S_TEXT/UTF8\nCodec ID/Info                  : UTF-8 Plain Text\nLanguage                       : English\nDefault                        : Yes\nForced                         : No\n\n\n\n\n [img]http://imgchicken.com/images/97611201950441853646.gif[/img]\n\n\n [/center]","torrent":{"xt":"urn:btih:7abb28f1ccf018f0cb9cbd62ec91efe038ea93bb","amp;dn":"Bobs.Burgers.S04.Season.04.Complete.1080p.WEB-DL.DD5.1.H264-AuP","amp;tr":["udp%3A%2F%2Ftracker.openbittorrent.com%3A80","udp%3A%2F%2Fopen.demonii.com%3A1337","udp%3A%2F%2Ftracker.coppersurfer.tk%3A6969","udp%3A%2F%2Fexodus.desync.com%3A6969"],"infoHash":"7abb28f1ccf018f0cb9cbd62ec91efe038ea93bb","infoHashBuffer":{"type":"Buffer","data":[122,187,40,241,204,240,24,240,203,156,189,98,236,145,239,224,56,234,147,187]},"announce":[],"urlList":[]}}